<svg viewBox="0 0 100 100" xmlns="http://www.w3.org/2000/svg">
  <rect width="100" height="100" fill="#F5F3FF"/>
  <!-- Ticket/issue card left -->
  <rect x="14" y="26" width="32" height="48" rx="5" fill="#8B5CF6" opacity="0.12"/>
  <rect x="14" y="26" width="32" height="48" rx="5" fill="none" stroke="#8B5CF6" stroke-width="2"/>
  <rect x="21" y="35" width="18" height="3" rx="1.5" fill="#8B5CF6" opacity="0.6"/>
  <rect x="21" y="43" width="13" height="3" rx="1.5" fill="#8B5CF6" opacity="0.4"/>
  <rect x="21" y="51" width="15" height="3" rx="1.5" fill="#8B5CF6" opacity="0.5"/>
  <rect x="21" y="59" width="10" height="3" rx="1.5" fill="#8B5CF6" opacity="0.35"/>
  <!-- Arrow -->
  <path d="M49 48 L58 48 M55 44 L59 48 L55 52" fill="none" stroke="#8B5CF6" stroke-width="2.5" stroke-linecap="round" stroke-linejoin="round"/>
  <!-- Lightning bolt right -->
  <rect x="60" y="26" width="26" height="48" rx="5" fill="#8B5CF6" opacity="0.12"/>
  <rect x="60" y="26" width="26" height="48" rx="5" fill="none" stroke="#8B5CF6" stroke-width="2"/>
  <path d="M76 34 L68 50 L74 50 L65 66 L79 46 L73 46 L82 34 Z" fill="#8B5CF6" opacity="0.7"/>
</svg>
