<svg viewBox="0 0 100 100" xmlns="http://www.w3.org/2000/svg">
  <rect width="100" height="100" fill="#EFF6FF"/>
  <!-- Anvil body -->
  <path d="M29 63 L39 43 L63 43 L63 60 Q63 69 55 69 L37 69 Q29 69 29 63 Z" fill="#3B82F6"/>
  <!-- Left horn -->
  <path d="M33 59 Q22 56 21 48 Q20 42 26 40 L31 49 Z" fill="#3B82F6"/>
  <!-- Right horn -->
  <path d="M61 59 Q72 56 73 48 Q74 42 68 40 L63 49 Z" fill="#3B82F6"/>
  <!-- Feet -->
  <rect x="35" y="67" width="30" height="7" rx="1" fill="#3B82F6"/>
  <!-- Pin dots -->
  <circle cx="40" cy="49" r="3" fill="white"/>
  <circle cx="50" cy="49" r="3" fill="white"/>
  <circle cx="60" cy="49" r="3" fill="white"/>
  <circle cx="45" cy="59" r="3" fill="white"/>
  <circle cx="55" cy="59" r="3" fill="white"/>
</svg>
